<?xml version="1.0" encoding="utf-8"?>
<!-- Generator: Adobe Illustrator 25.3.1, SVG Export Plug-In . SVG Version: 6.00 Build 0)  -->
<svg version="1.1" id="Layer_1" xmlns="http://www.w3.org/2000/svg" xmlns:xlink="http://www.w3.org/1999/xlink" x="0px" y="0px"
	 viewBox="0 0 256 256" enable-background="new 0 0 256 256" xml:space="preserve">
<path d="M35.75,58.15V35.09c0-1.52,0.12-3.24,0.36-5.17s0.7-3.72,1.38-5.41c0.68-1.68,1.64-3.1,2.88-4.26
	c1.24-1.16,2.86-1.74,4.86-1.74c2.16,0,3.98,0.78,5.47,2.34c1.48,1.56,2.22,3.38,2.22,5.47c0,1.52-0.3,2.96-0.9,4.32
	c-0.6,1.36-0.9,2.84-0.9,4.44v23.06c0,2.08-0.76,3.88-2.28,5.41c-1.52,1.52-3.32,2.28-5.41,2.28c-2.08,0-3.89-0.76-5.41-2.28
	C36.51,62.04,35.75,60.24,35.75,58.15z M35.75,150.4v-46.12c0-2.08,0.76-3.88,2.28-5.41c1.52-1.52,3.32-2.28,5.41-2.28
	c2.08,0,3.88,0.76,5.41,2.28c1.52,1.52,2.28,3.32,2.28,5.41v46.12c0,2.08-0.76,3.88-2.28,5.41c-1.52,1.52-3.32,2.28-5.41,2.28
	c-2.08,0-3.89-0.76-5.41-2.28C36.51,154.29,35.75,152.49,35.75,150.4z M52.93,228.36c0,2.08-0.74,3.9-2.22,5.47
	c-1.48,1.56-3.3,2.34-5.47,2.34c-2,0-3.62-0.58-4.86-1.74c-1.24-1.16-2.2-2.58-2.88-4.26c-0.68-1.68-1.14-3.48-1.38-5.41
	s-0.36-3.64-0.36-5.17v-23.06c0-2.08,0.76-3.88,2.28-5.41c1.52-1.52,3.32-2.28,5.41-2.28c2.08,0,3.88,0.76,5.41,2.28
	c1.52,1.52,2.28,3.32,2.28,5.41v23.06c0,1.6,0.3,3.08,0.9,4.44C52.63,225.4,52.93,226.84,52.93,228.36z M57.73,21.52
	c-2.08,0-3.9-0.74-5.47-2.22c-1.56-1.48-2.34-3.3-2.34-5.46c0-2,0.58-3.62,1.74-4.87c1.16-1.24,2.58-2.2,4.26-2.88
	c1.68-0.68,3.48-1.14,5.41-1.38s3.64-0.36,5.17-0.36h15.38c2.08,0,3.88,0.76,5.41,2.28c1.52,1.52,2.28,3.32,2.28,5.41
	c0,2.08-0.76,3.88-2.28,5.41c-1.52,1.52-3.32,2.28-5.41,2.28H66.5c-1.6,0-3.08,0.3-4.44,0.9C60.69,21.22,59.25,21.52,57.73,21.52z
	 M104.94,242.65c0,2.08-0.76,3.88-2.28,5.41c-1.52,1.52-3.32,2.28-5.41,2.28H66.5c-1.52,0-3.24-0.12-5.17-0.36s-3.72-0.7-5.41-1.38
	c-1.68-0.68-3.1-1.64-4.26-2.88c-1.16-1.24-1.74-2.86-1.74-4.86c0-2.16,0.78-3.98,2.34-5.47c1.56-1.48,3.38-2.22,5.47-2.22
	c1.52,0,2.96,0.3,4.32,0.9c1.36,0.6,2.84,0.9,4.44,0.9h30.75c2.08,0,3.88,0.76,5.41,2.28C104.18,238.77,104.94,240.57,104.94,242.65
	z M198.27,233.16c2.08,0,3.9,0.74,5.47,2.22c1.56,1.48,2.34,3.3,2.34,5.47c0,2-0.58,3.62-1.74,4.86c-1.16,1.24-2.58,2.2-4.26,2.88
	c-1.68,0.68-3.48,1.14-5.41,1.38s-3.64,0.36-5.17,0.36h-30.75c-2.08,0-3.88-0.76-5.41-2.28c-1.52-1.52-2.28-3.32-2.28-5.41
	c0-2.08,0.76-3.88,2.28-5.41c1.52-1.52,3.32-2.28,5.41-2.28h30.75c1.6,0,3.08-0.3,4.44-0.9
	C195.3,233.46,196.75,233.16,198.27,233.16z M220.25,188.84v30.75c0,1.52-0.12,3.24-0.36,5.17s-0.7,3.72-1.38,5.41
	c-0.68,1.68-1.64,3.1-2.88,4.26c-1.24,1.16-2.86,1.74-4.86,1.74c-2.16,0-3.98-0.78-5.47-2.34c-1.48-1.56-2.22-3.38-2.22-5.47
	c0-1.52,0.3-2.96,0.9-4.32c0.6-1.36,0.9-2.84,0.9-4.44v-30.75c0-2.08,0.76-3.88,2.28-5.41c1.52-1.52,3.32-2.28,5.41-2.28
	c2.08,0,3.88,0.76,5.41,2.28C219.49,184.96,220.25,186.76,220.25,188.84z M218.21,86.5c-1.36-3.28-3.25-6.13-5.65-8.53l-16.58-16.58
	c-2.97-2.97-7.79-2.97-10.76,0l-0.01,0.01c-2.97,2.97-2.97,7.79,0,10.76l19.51,19.51l0.16,35.67c0,2.08,0.75,3.88,2.28,5.41
	c1.52,1.52,3.32,2.28,5.4,2.28s3.89-0.76,5.41-2.28c1.52-1.53,2.28-3.33,2.28-5.41V96.59C220.25,93.15,219.57,89.78,218.21,86.5z
	 M138.09,6.38c-3.28-1.36-6.65-2.04-10.09-2.04h-15.38c-2.08,0-3.88,0.76-5.4,2.28c-1.52,1.52-2.28,3.33-2.28,5.41
	c0,2.08,0.76,3.88,2.28,5.4c1.52,1.52,3.32,2.28,5.4,2.28l20.17,0.01l19.96,19.96c2.97,2.97,7.79,2.97,10.76,0l0,0
	c2.97-2.97,2.97-7.79,0-10.76l-16.89-16.89C144.22,9.62,141.37,7.74,138.09,6.38z M119,156.59c-0.54-1.21-0.99-2.59-1.34-4.16
	c-0.35-1.56-0.53-3.11-0.53-4.66c0-3.5,0.69-6.49,2.06-8.97c1.38-2.48,3.33-4.8,5.88-6.97c1.58-1.5,3.06-2.9,4.44-4.19
	c1.38-1.29,2.6-2.6,3.69-3.94c1.04-1.21,1.92-2.56,2.62-4.06c0.71-1.5,1.06-3.1,1.06-4.81c0-2.92-0.97-5.26-2.91-7.03
	c-1.94-1.77-4.47-2.66-7.59-2.66c-2.62,0-5.1,0.64-7.44,1.91c-2.33,1.27-4.54,3.09-6.62,5.47l-10.19-9.19
	c3.17-3.88,6.97-6.94,11.41-9.19s9.32-3.38,14.66-3.38c7.42,0,13.55,1.96,18.41,5.88c4.85,3.92,7.28,9.23,7.28,15.94
	c0,2.71-0.33,5.15-1,7.31c-0.67,2.17-1.71,4.23-3.12,6.19c-1.29,1.88-2.79,3.65-4.5,5.31c-1.71,1.67-3.6,3.4-5.69,5.19
	c-2.54,2.08-4.49,4.01-5.84,5.78c-1.35,1.77-2.03,3.8-2.03,6.09c0,1,0.1,1.89,0.31,2.66c0.21,0.77,0.42,1.45,0.62,2.03L119,156.59z
	 M126.75,183.21c-2.96,0-5.43-0.97-7.41-2.91c-1.98-1.94-2.97-4.28-2.97-7.03c0-2.92,0.98-5.31,2.94-7.19
	c1.96-1.88,4.44-2.81,7.44-2.81s5.46,0.95,7.38,2.84c1.92,1.9,2.88,4.28,2.88,7.16c0,2.83-0.97,5.2-2.91,7.09
	S129.71,183.21,126.75,183.21z"/>
</svg>
